<svg id="Layer_1" data-name="Layer 1" xmlns="http://www.w3.org/2000/svg" viewBox="0 0 1024 1024"><defs><style>.cls-1{fill:#29abe2;}</style></defs><title>logo 2 justlogo v2</title><path class="cls-1" d="M454.08,335.54a173.17,173.17,0,0,0,69.61,90.33,115.52,115.52,0,0,0,63.4-90.33,169.28,169.28,0,0,1-133,0Z"/><path class="cls-1" d="M583.49,721h0L509.3,656l-70,64a202.59,202.59,0,0,0,64.45,13.66C530.83,734.75,558.14,732,583.49,721Z"/><path class="cls-1" d="M513.23,840.92A358.4,358.4,0,0,1,343,797.83l-3.8-2.06-1.1-4.17a205.35,205.35,0,0,1-5.7-31c-4.29-40.87,4.18-84.69,23.85-123.37,9-17.71,19.64-33.07,31.61-45.66a161.24,161.24,0,0,1,65.93-41.78l25.78-8.54-14.1,23.21c-8.79,14.47-17.05,29.49-24.55,44.64-9.81,19.83-16.5,36.31-21,51.87a220,220,0,0,0-8.27,75.41,245.56,245.56,0,0,0,97.46,21.47h2.6a245.81,245.81,0,0,0,95.75-19.56A165.47,165.47,0,0,0,593,672.62c-13.65-30.34-36.87-56.75-57.56-79.12-16.93-18.31-32.9-34.68-48.81-50-7.07-6.83-14.38-13.69-21.45-20.33-12.74-12-25.92-24.34-38.39-37.15-33.75-34.65-57.54-67.91-72.72-101.67a258.92,258.92,0,0,1-18.42-151.16l.86-4.71,4.21-2.28a358.47,358.47,0,0,1,166.75-43.07l3.31,0A358.4,358.4,0,0,1,681,226.17l3.79,2.06,1.11,4.17a205,205,0,0,1,5.7,31c4.29,40.87-4.18,84.68-23.85,123.37-9,17.71-19.64,33.07-31.61,45.66a161.23,161.23,0,0,1-65.93,41.78l-25.78,8.54,14.1-23.21c8.79-14.47,17.05-29.49,24.55-44.64,9.81-19.83,16.5-36.31,21-51.87a219.93,219.93,0,0,0,8.27-75.41,245.54,245.54,0,0,0-97.46-21.47h-2.6a245.8,245.8,0,0,0-95.75,19.56A165.48,165.48,0,0,0,431,351.38c13.65,30.34,36.87,56.75,57.56,79.12,16.93,18.3,32.89,34.67,48.81,50,7.07,6.83,14.38,13.69,21.45,20.34,12.74,12,25.91,24.33,38.39,37.14,33.76,34.65,57.54,67.91,72.72,101.67a258.92,258.92,0,0,1,18.42,151.16l-.86,4.71-4.21,2.28a358.48,358.48,0,0,1-166.75,43.07Z"/><path class="cls-1" d="M804.16,72H219.84A147.84,147.84,0,0,0,72,219.84V804.16A147.84,147.84,0,0,0,219.84,952H804.16A147.84,147.84,0,0,0,952,804.16V219.84A147.84,147.84,0,0,0,804.16,72ZM866,803.69c0,34.56-27.82,63.31-62.38,63.31H219.42C184.86,867,157,838.25,157,803.69V219.5A62.37,62.37,0,0,1,219.42,157h584.2A62.34,62.34,0,0,1,866,219.5Z"/></svg>