<svg id="Layer_1" data-name="Layer 1" xmlns="http://www.w3.org/2000/svg" viewBox="0 0 1224 1024"><defs><style>.cls-1{fill:#29abe2;}.cls-2{fill:#999;}</style></defs><title>Logo 2 inline v2</title><path class="cls-1" d="M362.35,429q-15.45,17.44-15.44,41.57,0,20,10.22,40,6.4,12.63,6.4,16.38a12.68,12.68,0,0,1-4,9.56c-2.66,2.54-7,3.81-11,3.81A22.69,22.69,0,0,1,336,535.71V585.1a50.09,50.09,0,0,0,22.8,5.63,51.82,51.82,0,0,0,39.31-17.25c10.59-11.5,16.15-25.55,16.15-42.13,0-11.33-3-23.09-9.31-35.26l-3.42-6.75c-2.7-5.25-4-9.58-4-13a15.08,15.08,0,0,1,3.72-10.25,11.63,11.63,0,0,1,9-4.25c1.8,0,2.76.62,7.76,1.88V415.06c-8-2.33-12.35-3.5-18.64-3.5C385.05,411.56,372.64,417.37,362.35,429Z"/><path class="cls-1" d="M524.61,462H470.51l.28-52H430V592h39V513h18.41C489.65,502,502,471,524.61,462Z"/><path class="cls-1" d="M768.93,589,732,516H706v-6c15-.26,26.73.32,29,.37l19-48.35H706.13l-.37-52H663.87l.37,49.58c-14.59.22-26.26,7.37-34.9,17.92C620.5,488.28,616,503.13,616,521.24V589h42V530.3c0-9.22,1-15.19,4-17.91V589h44V569.32L715.33,589Z"/><path class="cls-1" d="M595.08,478.27q-15.67-17.72-42.85-17.72-24.37,0-41.39,18.91t-17,46.08q0,27.92,16.85,46.45c11.23,12.36,25.16,18.53,42,18.53a53.84,53.84,0,0,0,9.32-1V541.07c-4,2.17-6.44,3.26-10.11,3.26a14,14,0,0,1-11.06-5c-2.92-3.34-4.35-7.6-4.35-12.77a18.5,18.5,0,0,1,4.84-12.77,14.92,14.92,0,0,1,11.46-5.38,13.71,13.71,0,0,1,11.63,5.88c2.88,3.92,4.33,9.88,4.33,16.47l.12,61.26h42l-.12-64.64C610.75,506.91,605.52,490.09,595.08,478.27Z"/><polygon class="cls-2" points="877.11 462.6 877.11 590.8 829.79 590.8 829.79 462.6 793.54 462.6 793.54 410.94 913.24 410.94 913.24 462.6 877.11 462.6"/><path class="cls-2" d="M1011.06,540.29v49.14a48.65,48.65,0,0,1-9.37,1q-25.09,0-41.82-18.79t-16.73-47.11q0-27.55,16.9-46.73t41.1-19.17q27,0,42.55,18t15.56,49.08l-.08,64.5h-41.51l-.12-61.07q0-10-4.29-16a13.51,13.51,0,0,0-11.54-6,14.68,14.68,0,0,0-11.38,5.46,19,19,0,0,0-4.8,13q0,7.88,4.35,13a13.9,13.9,0,0,0,11,5.08A17.26,17.26,0,0,0,1011.06,540.29Z"/><path class="cls-2" d="M1185.08,516H1157v-5.43c14-.26,27.75,0,30,.08L1207,462h-47.81l-.37-51h-41.89l.37,48.49c-14.76,1-27.55,7.54-38.37,19-11.89,12.55-17.83,27.81-17.83,45.47,0,18.58,5.71,34.46,17.49,47.26,10.58,11.51,22.75,17.8,37.34,18.8H1157V569.91L1168.37,592H1222Zm-75.72,22.52c-3.38-3.68-4.59-8.24-4.59-13.68,0-5.28,4.38-13.92,11-14.77l-.74,3V543A17.73,17.73,0,0,1,1109.36,538.52Z"/><path class="cls-2" d="M936.94,515.32q1.62-23.85,16.73-41a56.86,56.86,0,0,1,19.95-14.94l-34.58,0c-15.31,0-27.37,5.15-36.54,16.31S889,501.76,889,520.53V593h43.09l-.17-60.45C932,523.89,934.22,518.18,936.94,515.32Z"/><path class="cls-1" d="M129.28,443.55a56.32,56.32,0,0,0,22.64,29.38,37.57,37.57,0,0,0,20.62-29.38,55.06,55.06,0,0,1-43.26,0Z"/><path class="cls-1" d="M171.37,568.93h0l-24.13-21.14L124.46,568.6a65.89,65.89,0,0,0,21,4.44C154.24,573.4,163.12,572.5,171.37,568.93Z"/><path class="cls-1" d="M148.51,607.93a116.57,116.57,0,0,1-55.35-14l-1.23-.67-.36-1.36a66.79,66.79,0,0,1-1.85-10.09,72.94,72.94,0,0,1,7.76-40.13,62.71,62.71,0,0,1,10.28-14.85,52.44,52.44,0,0,1,21.44-13.59l8.39-2.78L133,518c-2.86,4.71-5.55,9.59-8,14.52a103.38,103.38,0,0,0-6.85,16.87,71.55,71.55,0,0,0-2.69,24.53,79.87,79.87,0,0,0,31.7,7H148a80,80,0,0,0,31.14-6.36,53.82,53.82,0,0,0-4.71-21.36c-4.44-9.87-12-18.46-18.72-25.73-5.51-6-10.7-11.28-15.88-16.28-2.3-2.22-4.68-4.45-7-6.61-4.14-3.89-8.43-7.92-12.49-12.08-11-11.27-18.72-22.09-23.65-33.07a84.21,84.21,0,0,1-6-49.17l.28-1.53L92.4,408a116.6,116.6,0,0,1,54.24-14h1.08a116.57,116.57,0,0,1,55.35,14l1.23.67.36,1.36a66.68,66.68,0,0,1,1.86,10.09,72.94,72.94,0,0,1-7.76,40.13,62.69,62.69,0,0,1-10.28,14.85A52.44,52.44,0,0,1,167,488.66l-8.39,2.78,4.59-7.55c2.86-4.71,5.55-9.59,8-14.52a103.36,103.36,0,0,0,6.85-16.87A71.53,71.53,0,0,0,180.75,428a79.86,79.86,0,0,0-31.7-7h-.84a80,80,0,0,0-31.14,6.36,53.82,53.82,0,0,0,4.71,21.36c4.44,9.87,12,18.46,18.72,25.73,5.51,6,10.7,11.28,15.88,16.28,2.3,2.22,4.68,4.45,7,6.61,4.14,3.89,8.43,7.91,12.49,12.08,11,11.27,18.72,22.09,23.65,33.07a84.22,84.22,0,0,1,6,49.17l-.28,1.53-1.37.74a116.6,116.6,0,0,1-54.24,14Z"/><path class="cls-1" d="M292,406.09A48.09,48.09,0,0,0,243.91,358H53.09A48.09,48.09,0,0,0,5,406.09V596.91A48.09,48.09,0,0,0,53.09,645H243.91A48.09,48.09,0,0,0,292,596.91ZM264,595.82c0,11.24-9.79,21.18-21,21.18h-190C41.71,617,33,607.06,33,595.82v-190A19.55,19.55,0,0,1,52.95,386H243c11.24,0,21,8.56,21,19.81Z"/></svg>