<svg id="Layer_1" data-name="Layer 1" xmlns="http://www.w3.org/2000/svg" viewBox="0 0 117 117"><defs><style>.cls-1{fill:#29abe2;}</style></defs><title>fav icon square 128 clipped v2</title><path class="cls-1" d="M56.15,40.77a23,23,0,0,0,9.23,12,15.32,15.32,0,0,0,8.41-12,22.44,22.44,0,0,1-17.63,0Z" transform="translate(-5 -6)"/><path class="cls-1" d="M73.31,91.88h0l-9.84-8.62-9.28,8.48a26.86,26.86,0,0,0,8.54,1.81A23.86,23.86,0,0,0,73.31,91.88Z" transform="translate(-5 -6)"/><path class="cls-1" d="M64,107.77a47.52,47.52,0,0,1-22.56-5.71l-.5-.27-.15-.55A27.22,27.22,0,0,1,40,97.12a29.73,29.73,0,0,1,3.16-16.36,25.56,25.56,0,0,1,4.19-6.05,21.38,21.38,0,0,1,8.74-5.54L59.54,68l-1.87,3.08C56.51,73,55.41,75,54.42,77a42.14,42.14,0,0,0-2.79,6.88,29.16,29.16,0,0,0-1.1,10,32.55,32.55,0,0,0,12.92,2.85h.34a32.59,32.59,0,0,0,12.69-2.59,21.94,21.94,0,0,0-1.92-8.71c-1.81-4-4.89-7.52-7.63-10.49-2.24-2.43-4.36-4.6-6.47-6.63-.94-.9-1.91-1.82-2.84-2.7-1.69-1.59-3.44-3.23-5.09-4.92a47.48,47.48,0,0,1-9.64-13.48,34.33,34.33,0,0,1-2.44-20l.11-.62.56-.3a47.52,47.52,0,0,1,22.11-5.71h.44a47.52,47.52,0,0,1,22.56,5.71l.5.27.15.55a27.18,27.18,0,0,1,.76,4.11,29.73,29.73,0,0,1-3.16,16.36,25.55,25.55,0,0,1-4.19,6.05,21.38,21.38,0,0,1-8.74,5.54l-3.42,1.13L70,57.21c1.17-1.92,2.26-3.91,3.25-5.92A42.13,42.13,0,0,0,76,44.42a29.16,29.16,0,0,0,1.1-10,32.55,32.55,0,0,0-12.92-2.85h-.34a32.59,32.59,0,0,0-12.69,2.59,21.94,21.94,0,0,0,1.92,8.71c1.81,4,4.89,7.52,7.63,10.49C63,55.79,65.09,58,67.2,60c.94.91,1.91,1.82,2.84,2.7,1.69,1.59,3.44,3.23,5.09,4.92a47.47,47.47,0,0,1,9.64,13.48,34.33,34.33,0,0,1,2.44,20l-.11.62-.56.3a47.53,47.53,0,0,1-22.11,5.71Z" transform="translate(-5 -6)"/><path class="cls-1" d="M122,25.6A19.6,19.6,0,0,0,102.4,6H24.6A19.6,19.6,0,0,0,5,25.6v77.8A19.6,19.6,0,0,0,24.6,123h77.8A19.6,19.6,0,0,0,122,103.4Zm-12,77.24c0,4.58-2.92,9.16-7.5,9.16H25c-4.58,0-9-4.58-9-9.16V25.39C16,20.81,20.46,18,25,18H102.5c4.58,0,7.5,2.81,7.5,7.39Z" transform="translate(-5 -6)"/></svg>